<svg version="1" xmlns="http://www.w3.org/2000/svg" width="525.333" height="525.333" viewBox="0 0 394.000000 394.000000"><path d="M47.8 93.6c-1.2 1.2-.9 5.1.5 6.2.6.5 3.6 1.5 6.6 2.1 10.9 2.3 19.1 9.1 24.9 20.6 1.1 2.2 16.9 39.1 35.2 82 18.2 42.9 33.8 79 34.6 80.2 1.8 2.8 5.8 3 8 .4.9-1.1 11-19.2 22.4-40.3 11.4-21 21.1-38.2 21.6-38.2.5.1 9 17.7 19 39 10 21.4 18.7 39.5 19.3 40.1 1.7 1.9 5.5 1.6 7.3-.5.8-.9 16.9-37.3 35.8-80.7 18.8-43.5 35.6-81.7 37.3-84.9 1.8-3.3 5.2-8.1 7.8-10.7 4.4-4.5 6.3-5.4 17.7-8.5 1.8-.5 1.5-6.3-.4-7.1-.9-.3-7.4-.1-14.5.6-9.8.9-16.5.9-27.9 0-16.5-1.2-18.4-.8-17.8 4 .3 2.3 1 2.7 6.2 3.9 11 2.4 14.6 7.6 12.6 18-1.3 7.1-23 58.2-24.7 58.2-.7 0-2.1-.4-3.1-1-11.5-6.3-33.6-11.6-44.4-10.7-3.8.3-7 .2-7.3-.4-.7-1.1 19-38.7 24.6-47 7-10.4 17.9-17.9 25.9-17.9 2.2 0 3.4-3.1 2.5-6-.7-2.3-3.2-2.5-19-1-6.6.6-15.6.6-26.4-.2-17.8-1.2-18.4-1-17.9 4.2.3 2.1 1.1 2.6 5.3 3.6 15.3 3.4 17.2 10.9 7.5 29.8-14.2 27.5-16.2 30.8-17.5 29.4-2.7-3-20.8-42.5-21.3-46.4-.8-7.1 2.6-10.7 12-12.8 5.2-1.1 5.3-1.2 5.3-4.6v-3.5h-35l-35 .1v2.8c0 3.2 1 3.9 7.9 5.7 5.8 1.5 10.7 5.5 15.2 12.5 4 6.3 23.6 48.5 22.9 49.2-.3.3-1.9-.2-3.4-1.1-1.6-.9-3.8-1.7-4.9-1.7-1.2 0-2.3-.4-2.6-.8-1.3-2.1-14.7-3.5-26.8-2.8-6.8.4-14 .9-16.2.9l-3.8.2-7.4-16.9c-9-20.7-9.8-23.3-8.4-28.5 1.4-5.2 5.7-8.7 13.2-10.8 5.9-1.7 5.9-1.7 5.6-5.2l-.3-3.6h-8c-4.4 0-15.4.3-24.5.5-9.1.3-23 .1-31-.3-8-.5-14.8-.5-15.2-.1zm131.7 71c2.8 1.2 6.1 3.3 7.4 4.8 3.3 3.5 3.9 11 1.6 18.4-2.2 6.9-4.4 12.2-4.5 10.4 0-.8-.5-1-1.2-.6-.7.5-.9.2-.6-.8 1.4-3.6 2-14.8.9-18-1.4-4.3-6.3-9-12.1-11.7-2.5-1.1-3.9-2-3.1-2.1.8 0 1.1-.7.8-2-.4-1.7-.1-1.8 2.7-1.3 1.7.4 5.4 1.6 8.1 2.9zm-11.6 3.9c5.6 2 10.8 6 12.8 9.8 1.7 3.3 1.2 12.5-.9 17.5-2.5 5.8-7.3 12.3-11.1 14.9-3.6 2.5-4.8 2.8-12.6 2.8-7 0-9.4-.4-12.7-2.2-9.6-5.1-15-16.2-13.4-27.3 1.5-10.6 4.1-15.4 9.3-17 4.5-1.4 23.3-.4 28.6 1.5zm59.5.3c-1.6 1.1-2.4 4-1.1 4.5.6.2-1 .9-3.6 1.6-8.6 2.5-13.3 10.7-12.5 22.1l.4 5.6-2-2c-3-3-3.5-17.4-.9-23.5 1.9-4.4 3.9-5.6 12.8-8.1 3.8-1 8.3-1.2 6.9-.2zm-27.2 3.7c-.7 3.7-2.2 4.1-2.2.6 0-2 .5-3.1 1.4-3.1.9 0 1.2.8.8 2.5zm50.8 5c7.1 1.9 10.2 4.3 11.8 9.1 1.8 5.3.9 17.1-1.7 22.1-2.8 5.6-10.1 12-15.3 13.4-8.5 2.3-21.3-.6-26-5.8-.9-1-2.9-4.6-4.4-7.8-2.1-4.7-2.6-7.6-2.7-13.6-.1-11 3-15.5 12.8-18.5 4.9-1.5 18.1-.9 25.5 1.1zm-54.3 6.2c-3.3.5-4.3 2.3-2.8 5.1.9 1.7-1.3 6.6-14 31.1-8.3 16-15.4 29.1-15.8 29.1-.7 0-11.8-23.9-12.4-26.5-.1-.5 2.7-1.3 6.3-1.7 8.2-.8 12.8-2.5 17.1-6.3 3.8-3.4 9.9-11.3 9.9-12.9 0-.6.6-2.3 1.4-3.7.7-1.4 2.1-5.1 3.1-8.2 1.8-5.7 2.7-6.5 7.5-6.4 2.2 0 2.2 0-.3.4zm83.3 8.7c0 .3-1.5 1.4-3.2 2.6l-3.3 2.2 2.8-2.6c2.7-2.5 3.7-3.1 3.7-2.2zm-16.2 28.5c-1.4 1.5-4.6 8.1-7.3 14.5-2.6 6.4-5.1 11.6-5.4 11.6-.4 0-2.3-3.4-4.4-7.5-2-4.1-4.2-7.5-4.8-7.5-2.5 0 .4-1.8 4.8-3 6.4-1.7 9.1-3.2 14.2-7.4 5.2-4.3 6.1-4.6 2.9-.7zm-26.5 10.8c-.7.2-1.9.2-2.5 0-.7-.3-.2-.5 1.2-.5s1.9.2 1.3.5z"/></svg>
